<?xml version="1.0" encoding="UTF-8"?>
<svg width="1200" height="600" viewBox="0 0 1200 600" xmlns="http://www.w3.org/2000/svg">
  <defs>
    <linearGradient id="gradient" x1="0%" y1="0%" x2="100%" y2="100%">
      <stop offset="0%" stop-color="#3b82f6" stop-opacity="0.1"/>
      <stop offset="100%" stop-color="#8b5cf6" stop-opacity="0.1"/>
    </linearGradient>
  </defs>
  <rect width="1200" height="600" fill="url(#gradient)"/>
  <g fill="#3b82f6" fill-opacity="0.1">
    <!-- Simplified world map shapes -->
    <path d="M200,100 C250,80 300,120 350,100 C400,80 450,120 500,100 C550,80 600,120 650,100 C700,80 750,120 800,100 C850,80 900,120 950,100 C1000,80 1050,120 1100,100 L1100,500 C1050,480 1000,520 950,500 C900,480 850,520 800,500 C750,480 700,520 650,500 C600,480 550,520 500,500 C450,480 400,520 350,500 C300,480 250,520 200,500 Z"/>
    <circle cx="300" cy="200" r="20"/>
    <circle cx="500" cy="250" r="25"/>
    <circle cx="700" cy="180" r="15"/>
    <circle cx="900" cy="220" r="22"/>
    <circle cx="400" cy="300" r="18"/>
    <circle cx="600" cy="350" r="20"/>
    <circle cx="800" cy="280" r="15"/>
    <circle cx="350" cy="400" r="22"/>
    <circle cx="550" cy="380" r="18"/>
    <circle cx="750" cy="420" r="20"/>
    <circle cx="950" cy="380" r="15"/>
  </g>
  <g stroke="#8b5cf6" stroke-opacity="0.2" stroke-width="1" fill="none">
    <!-- Connection lines -->
    <path d="M300,200 C350,220 380,240 400,300"/>
    <path d="M500,250 C520,280 550,320 550,380"/>
    <path d="M700,180 C720,200 750,250 750,420"/>
    <path d="M900,220 C920,250 940,300 950,380"/>
    <path d="M400,300 C450,320 500,340 550,380"/>
    <path d="M600,350 C650,370 700,390 750,420"/>
    <path d="M800,280 C850,300 900,340 950,380"/>
    <path d="M300,200 C350,180 400,160 500,250"/>
    <path d="M500,250 C550,230 600,210 700,180"/>
    <path d="M700,180 C750,160 800,140 900,220"/>
  </g>
</svg>
