<?xml version="1.0" encoding="UTF-8"?>
<svg width="1440px" height="900px" viewBox="0 0 1440 900" version="1.1" xmlns="http://www.w3.org/2000/svg" xmlns:xlink="http://www.w3.org/1999/xlink">
    <title>World Map Pattern</title>
    <defs>
        <linearGradient x1="0%" y1="0%" x2="100%" y2="100%" id="blueGradient">
            <stop stop-color="#0066FF" stop-opacity="0.1" offset="0%"></stop>
            <stop stop-color="#5271FF" stop-opacity="0.05" offset="100%"></stop>
        </linearGradient>
        <linearGradient x1="100%" y1="0%" x2="0%" y2="100%" id="purpleGradient">
            <stop stop-color="#7C3AED" stop-opacity="0.1" offset="0%"></stop>
            <stop stop-color="#A78BFA" stop-opacity="0.05" offset="100%"></stop>
        </linearGradient>
        <linearGradient x1="50%" y1="0%" x2="50%" y2="100%" id="flowGradient">
            <stop stop-color="#0066FF" stop-opacity="0.08" offset="0%"></stop>
            <stop stop-color="#7C3AED" stop-opacity="0.08" offset="100%"></stop>
        </linearGradient>
    </defs>
    <g id="Background" stroke="none" stroke-width="1" fill="none" fill-rule="evenodd">
        <!-- Abstract World Map -->
        <path d="M240,180 C280,160 320,200 360,190 C400,180 440,140 480,150 C520,160 560,200 600,190 C640,180 680,140 720,150 C760,160 800,200 840,190 C880,180 920,140 960,150 C1000,160 1040,200 1080,190 C1120,180 1160,140 1200,150" id="Continent1" stroke="url(#blueGradient)" stroke-width="2" opacity="0.6"></path>
        <path d="M200,300 C240,280 280,320 320,310 C360,300 400,260 440,270 C480,280 520,320 560,310 C600,300 640,260 680,270 C720,280 760,320 800,310 C840,300 880,260 920,270 C960,280 1000,320 1040,310 C1080,300 1120,260 1160,270" id="Continent2" stroke="url(#purpleGradient)" stroke-width="2" opacity="0.5"></path>
        <path d="M280,420 C320,400 360,440 400,430 C440,420 480,380 520,390 C560,400 600,440 640,430 C680,420 720,380 760,390 C800,400 840,440 880,430 C920,420 960,380 1000,390 C1040,400 1080,440 1120,430 C1160,420 1200,380 1240,390" id="Continent3" stroke="url(#blueGradient)" stroke-width="2" opacity="0.6"></path>
        <path d="M240,540 C280,520 320,560 360,550 C400,540 440,500 480,510 C520,520 560,560 600,550 C640,540 680,500 720,510 C760,520 800,560 840,550 C880,540 920,500 960,510 C1000,520 1040,560 1080,550 C1120,540 1160,500 1200,510" id="Continent4" stroke="url(#purpleGradient)" stroke-width="2" opacity="0.5"></path>
        
        <!-- Flowing Lines -->
        <path d="M100,100 C200,150 300,50 400,100 C500,150 600,50 700,100 C800,150 900,50 1000,100 C1100,150 1200,50 1300,100 C1400,150 1500,50 1600,100" id="Flow1" stroke="url(#flowGradient)" stroke-width="1.5" opacity="0.4"></path>
        <path d="M100,200 C200,250 300,150 400,200 C500,250 600,150 700,200 C800,250 900,150 1000,200 C1100,250 1200,150 1300,200 C1400,250 1500,150 1600,200" id="Flow2" stroke="url(#flowGradient)" stroke-width="1.5" opacity="0.3"></path>
        <path d="M100,300 C200,350 300,250 400,300 C500,350 600,250 700,300 C800,350 900,250 1000,300 C1100,350 1200,250 1300,300 C1400,350 1500,250 1600,300" id="Flow3" stroke="url(#flowGradient)" stroke-width="1.5" opacity="0.4"></path>
        <path d="M100,400 C200,450 300,350 400,400 C500,450 600,350 700,400 C800,450 900,350 1000,400 C1100,450 1200,350 1300,400 C1400,450 1500,350 1600,400" id="Flow4" stroke="url(#flowGradient)" stroke-width="1.5" opacity="0.3"></path>
        <path d="M100,500 C200,550 300,450 400,500 C500,550 600,450 700,500 C800,550 900,450 1000,500 C1100,550 1200,450 1300,500 C1400,550 1500,450 1600,500" id="Flow5" stroke="url(#flowGradient)" stroke-width="1.5" opacity="0.4"></path>
        <path d="M100,600 C200,650 300,550 400,600 C500,650 600,550 700,600 C800,650 900,550 1000,600 C1100,650 1200,550 1300,600 C1400,650 1500,550 1600,600" id="Flow6" stroke="url(#flowGradient)" stroke-width="1.5" opacity="0.3"></path>
        <path d="M100,700 C200,750 300,650 400,700 C500,750 600,650 700,700 C800,750 900,650 1000,700 C1100,750 1200,650 1300,700 C1400,750 1500,650 1600,700" id="Flow7" stroke="url(#flowGradient)" stroke-width="1.5" opacity="0.4"></path>
        
        <!-- Dots Pattern -->
        <g id="Dots" opacity="0.2">
            <circle cx="200" cy="150" r="2" fill="#0066FF"></circle>
            <circle cx="250" cy="200" r="2" fill="#5271FF"></circle>
            <circle cx="300" cy="150" r="2" fill="#7C3AED"></circle>
            <circle cx="350" cy="200" r="2" fill="#A78BFA"></circle>
            <circle cx="400" cy="150" r="2" fill="#0066FF"></circle>
            <circle cx="450" cy="200" r="2" fill="#5271FF"></circle>
            <circle cx="500" cy="150" r="2" fill="#7C3AED"></circle>
            <circle cx="550" cy="200" r="2" fill="#A78BFA"></circle>
            <circle cx="600" cy="150" r="2" fill="#0066FF"></circle>
            <circle cx="650" cy="200" r="2" fill="#5271FF"></circle>
            <circle cx="700" cy="150" r="2" fill="#7C3AED"></circle>
            <circle cx="750" cy="200" r="2" fill="#A78BFA"></circle>
            <circle cx="800" cy="150" r="2" fill="#0066FF"></circle>
            <circle cx="850" cy="200" r="2" fill="#5271FF"></circle>
            <circle cx="900" cy="150" r="2" fill="#7C3AED"></circle>
            <circle cx="950" cy="200" r="2" fill="#A78BFA"></circle>
            <circle cx="1000" cy="150" r="2" fill="#0066FF"></circle>
            <circle cx="1050" cy="200" r="2" fill="#5271FF"></circle>
            <circle cx="1100" cy="150" r="2" fill="#7C3AED"></circle>
            <circle cx="1150" cy="200" r="2" fill="#A78BFA"></circle>
            <circle cx="1200" cy="150" r="2" fill="#0066FF"></circle>
            <circle cx="1250" cy="200" r="2" fill="#5271FF"></circle>
            
            <circle cx="200" cy="350" r="2" fill="#0066FF"></circle>
            <circle cx="250" cy="400" r="2" fill="#5271FF"></circle>
            <circle cx="300" cy="350" r="2" fill="#7C3AED"></circle>
            <circle cx="350" cy="400" r="2" fill="#A78BFA"></circle>
            <circle cx="400" cy="350" r="2" fill="#0066FF"></circle>
            <circle cx="450" cy="400" r="2" fill="#5271FF"></circle>
            <circle cx="500" cy="350" r="2" fill="#7C3AED"></circle>
            <circle cx="550" cy="400" r="2" fill="#A78BFA"></circle>
            <circle cx="600" cy="350" r="2" fill="#0066FF"></circle>
            <circle cx="650" cy="400" r="2" fill="#5271FF"></circle>
            <circle cx="700" cy="350" r="2" fill="#7C3AED"></circle>
            <circle cx="750" cy="400" r="2" fill="#A78BFA"></circle>
            <circle cx="800" cy="350" r="2" fill="#0066FF"></circle>
            <circle cx="850" cy="400" r="2" fill="#5271FF"></circle>
            <circle cx="900" cy="350" r="2" fill="#7C3AED"></circle>
            <circle cx="950" cy="400" r="2" fill="#A78BFA"></circle>
            <circle cx="1000" cy="350" r="2" fill="#0066FF"></circle>
            <circle cx="1050" cy="400" r="2" fill="#5271FF"></circle>
            <circle cx="1100" cy="350" r="2" fill="#7C3AED"></circle>
            <circle cx="1150" cy="400" r="2" fill="#A78BFA"></circle>
            <circle cx="1200" cy="350" r="2" fill="#0066FF"></circle>
            <circle cx="1250" cy="400" r="2" fill="#5271FF"></circle>
            
            <circle cx="200" cy="550" r="2" fill="#0066FF"></circle>
            <circle cx="250" cy="600" r="2" fill="#5271FF"></circle>
            <circle cx="300" cy="550" r="2" fill="#7C3AED"></circle>
            <circle cx="350" cy="600" r="2" fill="#A78BFA"></circle>
            <circle cx="400" cy="550" r="2" fill="#0066FF"></circle>
            <circle cx="450" cy="600" r="2" fill="#5271FF"></circle>
            <circle cx="500" cy="550" r="2" fill="#7C3AED"></circle>
            <circle cx="550" cy="600" r="2" fill="#A78BFA"></circle>
            <circle cx="600" cy="550" r="2" fill="#0066FF"></circle>
            <circle cx="650" cy="600" r="2" fill="#5271FF"></circle>
            <circle cx="700" cy="550" r="2" fill="#7C3AED"></circle>
            <circle cx="750" cy="600" r="2" fill="#A78BFA"></circle>
            <circle cx="800" cy="550" r="2" fill="#0066FF"></circle>
            <circle cx="850" cy="600" r="2" fill="#5271FF"></circle>
            <circle cx="900" cy="550" r="2" fill="#7C3AED"></circle>
            <circle cx="950" cy="600" r="2" fill="#A78BFA"></circle>
            <circle cx="1000" cy="550" r="2" fill="#0066FF"></circle>
            <circle cx="1050" cy="600" r="2" fill="#5271FF"></circle>
            <circle cx="1100" cy="550" r="2" fill="#7C3AED"></circle>
            <circle cx="1150" cy="600" r="2" fill="#A78BFA"></circle>
            <circle cx="1200" cy="550" r="2" fill="#0066FF"></circle>
            <circle cx="1250" cy="600" r="2" fill="#5271FF"></circle>
            
            <circle cx="200" cy="750" r="2" fill="#0066FF"></circle>
            <circle cx="250" cy="800" r="2" fill="#5271FF"></circle>
            <circle cx="300" cy="750" r="2" fill="#7C3AED"></circle>
            <circle cx="350" cy="800" r="2" fill="#A78BFA"></circle>
            <circle cx="400" cy="750" r="2" fill="#0066FF"></circle>
            <circle cx="450" cy="800" r="2" fill="#5271FF"></circle>
            <circle cx="500" cy="750" r="2" fill="#7C3AED"></circle>
            <circle cx="550" cy="800" r="2" fill="#A78BFA"></circle>
            <circle cx="600" cy="750" r="2" fill="#0066FF"></circle>
            <circle cx="650" cy="800" r="2" fill="#5271FF"></circle>
            <circle cx="700" cy="750" r="2" fill="#7C3AED"></circle>
            <circle cx="750" cy="800" r="2" fill="#A78BFA"></circle>
            <circle cx="800" cy="750" r="2" fill="#0066FF"></circle>
            <circle cx="850" cy="800" r="2" fill="#5271FF"></circle>
            <circle cx="900" cy="750" r="2" fill="#7C3AED"></circle>
            <circle cx="950" cy="800" r="2" fill="#A78BFA"></circle>
            <circle cx="1000" cy="750" r="2" fill="#0066FF"></circle>
            <circle cx="1050" cy="800" r="2" fill="#5271FF"></circle>
            <circle cx="1100" cy="750" r="2" fill="#7C3AED"></circle>
            <circle cx="1150" cy="800" r="2" fill="#A78BFA"></circle>
            <circle cx="1200" cy="750" r="2" fill="#0066FF"></circle>
            <circle cx="1250" cy="800" r="2" fill="#5271FF"></circle>
        </g>
    </g>
</svg>
